<svg xmlns="http://www.w3.org/2000/svg" fill="none"><g clip-path="url(#a)"><path d="M18.284 30.234a2 2 0 0 1 3.02-2.62l8.66 9.9v-27a2 2 0 1 1 4 0v27l8.66-9.9a2 2 0 0 1 3.02 2.62l-12.18 14a2.001 2.001 0 0 1-3 0l-12.18-14zm35.68 14.38a2 2 0 0 0-2 2v2.38c0 .76-1 1.62-2.44 1.62h-35.12c-1.44 0-2.44-.86-2.44-1.62v-2.38a2 2 0 1 0-4 0v2.38a6 6 0 0 0 6.44 5.62h35.12a5.999 5.999 0 0 0 6.44-5.62v-2.38a2 2 0 0 0-2-2z" fill="currentColor"/></g><defs><clipPath id="a"><path fill="#fff" transform="translate(0 .5)" d="M0 0h64v64H0z"/></clipPath></defs></svg>