<svg xmlns="http://www.w3.org/2000/svg" fill="none"><path d="M30.667 35.834A15.333 15.333 0 1 1 46 20.5a15.36 15.36 0 0 1-15.333 15.334zm0-26.667A11.333 11.333 0 1 0 42 20.5 11.36 11.36 0 0 0 30.667 9.167z" fill="#F2F2F2"/><path d="M6.667 57.167a2.027 2.027 0 0 1-2-2A23.387 23.387 0 0 1 28 31.834h5.333a2 2 0 1 1 0 4H28A19.36 19.36 0 0 0 8.667 55.167a2.027 2.027 0 0 1-2 2zm32 2.667a2 2 0 0 1-1.334-.667L26.667 48.501a2 2 0 0 1 2.666-2.667l9.147 9.147 17.36-19.814a2.005 2.005 0 0 1 2.987 2.667L40.16 59.167a1.947 1.947 0 0 1-1.413.694l-.08-.027z" fill="currentColor"/></svg>