<svg xmlns="http://www.w3.org/2000/svg" fill="none"><path fill-rule="evenodd" clip-rule="evenodd" d="M43.41 44.385a3.424 3.424 0 0 0 3.42-3.429v-5.485a2.054 2.054 0 1 1 4.1 0v5.485a7.534 7.534 0 0 1-7.52 7.544h-5.469a2.057 2.057 0 0 1 0-4.115h5.47zm0-39.77a3.423 3.423 0 0 1 3.42 3.429v5.485a2.054 2.054 0 1 0 4.1 0V8.044A7.533 7.533 0 0 0 43.41.5h-5.469a2.057 2.057 0 1 0 0 4.115h5.47zm-32.82 39.77a3.424 3.424 0 0 1-3.42-3.429v-5.485a2.053 2.053 0 1 0-4.1 0v5.485a7.533 7.533 0 0 0 7.52 7.544h5.469a2.057 2.057 0 0 0 0-4.115h-5.47zm0-39.77a3.423 3.423 0 0 0-3.42 3.429v5.485a2.053 2.053 0 1 1-4.1 0V8.044A7.533 7.533 0 0 1 10.59.5h5.469a2.057 2.057 0 0 1 0 4.115h-5.47zM53.666 24.5a2.055 2.055 0 0 1-2.054 2.056H2.387a2.056 2.056 0 1 1 0-4.112h49.226a2.052 2.052 0 0 1 2.054 2.056z" fill="currentColor"/></svg>