<svg xmlns="http://www.w3.org/2000/svg" fill="none"><path d="M45.505 12.602a15.98 15.98 0 0 0-31-.018 16 16 0 0 0 1.5 31.93h6a2 2 0 0 0 0-4h-6a12 12 0 1 1-.07-24 2.076 2.076 0 0 0 2.2-1.708 11.982 11.982 0 0 1 23.724 0 2.16 2.16 0 0 0 2.146 1.708 12 12 0 0 1 0 24h-6a2 2 0 0 0 0 4h6a16 16 0 0 0 1.5-31.912z" fill="#F2F2F2"/><path d="M38.591 29.928a2 2 0 0 0 2.828-2.828l-10-10a2 2 0 0 0-2.828 0l-10 10a2 2 0 0 0 2.828 2.828l6.586-6.586v25.172a2 2 0 1 0 4 0V23.342l6.586 6.586z" fill="currentColor"/></svg>